<svg width="1600" height="900" viewBox="0 0 1600 900" fill="none" xmlns="http://www.w3.org/2000/svg">
  <rect width="1600" height="900" fill="#0F1117"/>
  <g opacity="0.28">
    <path d="M0 100H1600" stroke="#2A3140"/>
    <path d="M0 220H1600" stroke="#2A3140"/>
    <path d="M0 340H1600" stroke="#2A3140"/>
    <path d="M0 460H1600" stroke="#2A3140"/>
    <path d="M0 580H1600" stroke="#2A3140"/>
    <path d="M0 700H1600" stroke="#2A3140"/>
    <path d="M0 820H1600" stroke="#2A3140"/>
    <path d="M160 0V900" stroke="#2A3140"/>
    <path d="M380 0V900" stroke="#2A3140"/>
    <path d="M600 0V900" stroke="#2A3140"/>
    <path d="M820 0V900" stroke="#2A3140"/>
    <path d="M1040 0V900" stroke="#2A3140"/>
    <path d="M1260 0V900" stroke="#2A3140"/>
    <path d="M1480 0V900" stroke="#2A3140"/>
  </g>
  <circle cx="1298" cy="190" r="210" fill="url(#paint0_radial)" fill-opacity="0.75"/>
  <circle cx="304" cy="760" r="220" fill="url(#paint1_radial)" fill-opacity="0.65"/>
  <rect x="172" y="132" width="1256" height="636" rx="34" fill="url(#paint2_linear)" stroke="url(#paint3_linear)" stroke-width="2"/>
  <text x="230" y="102" fill="#E9EDF7" font-family="Inter, Arial, sans-serif" font-size="54" font-weight="700">CostSense</text>
  <text x="230" y="154" fill="#93A0B5" font-family="Inter, Arial, sans-serif" font-size="24">Autonomous Cost Intelligence</text>
  <path d="M378 451H542" stroke="#6670FF" stroke-width="5" stroke-linecap="round"/>
  <path d="M627 451H791" stroke="#6670FF" stroke-width="5" stroke-linecap="round"/>
  <path d="M876 451H1040" stroke="#6670FF" stroke-width="5" stroke-linecap="round"/>
  <path d="M1125 451H1289" stroke="#6670FF" stroke-width="5" stroke-linecap="round"/>
  <circle cx="296" cy="451" r="74" fill="#171A26" stroke="#4A4EF0" stroke-width="2"/>
  <circle cx="545" cy="451" r="74" fill="#171A26" stroke="#4A4EF0" stroke-width="2"/>
  <circle cx="794" cy="451" r="74" fill="#171A26" stroke="#4A4EF0" stroke-width="2"/>
  <circle cx="1043" cy="451" r="74" fill="#171A26" stroke="#4A4EF0" stroke-width="2"/>
  <circle cx="1292" cy="451" r="74" fill="#171A26" stroke="#4A4EF0" stroke-width="2"/>
  <text x="262" y="447" fill="#EEF1FF" font-family="Inter, Arial, sans-serif" font-size="24" font-weight="700">Detect</text>
  <text x="258" y="478" fill="#8F97C7" font-family="Inter, Arial, sans-serif" font-size="16">Anomalies</text>
  <text x="507" y="447" fill="#EEF1FF" font-family="Inter, Arial, sans-serif" font-size="24" font-weight="700">Score</text>
  <text x="485" y="478" fill="#8F97C7" font-family="Inter, Arial, sans-serif" font-size="16">AS / APS</text>
  <text x="754" y="447" fill="#EEF1FF" font-family="Inter, Arial, sans-serif" font-size="24" font-weight="700">Route</text>
  <text x="736" y="478" fill="#8F97C7" font-family="Inter, Arial, sans-serif" font-size="16">Risk gates</text>
  <text x="986" y="447" fill="#EEF1FF" font-family="Inter, Arial, sans-serif" font-size="24" font-weight="700">Resolve</text>
  <text x="969" y="478" fill="#8F97C7" font-family="Inter, Arial, sans-serif" font-size="16">Low risk</text>
  <text x="1241" y="447" fill="#EEF1FF" font-family="Inter, Arial, sans-serif" font-size="24" font-weight="700">Approve</text>
  <text x="1238" y="478" fill="#8F97C7" font-family="Inter, Arial, sans-serif" font-size="16">CFO gate</text>
  <rect x="306" y="584" width="940" height="108" rx="28" fill="#151A24" fill-opacity="0.9" stroke="#3E4477"/>
  <path d="M360 659L502 618L610 644L742 573L864 611L970 547L1110 620L1192 499" stroke="#8B8EFF" stroke-width="8" stroke-linecap="round"/>
  <circle cx="1192" cy="499" r="14" fill="#A39BFF"/>
  <circle cx="1192" cy="499" r="34" fill="#A39BFF" fill-opacity="0.18"/>
  <text x="365" y="621" fill="#EEF1FF" font-family="Inter, Arial, sans-serif" font-size="22" font-weight="700">Spend anomaly spike</text>
  <text x="365" y="652" fill="#8F97C7" font-family="Inter, Arial, sans-serif" font-size="18">Real-time detection and autonomous routing</text>
  <defs>
    <radialGradient id="paint0_radial" cx="0" cy="0" r="1" gradientUnits="userSpaceOnUse" gradientTransform="translate(1298 190) rotate(90) scale(210)">
      <stop stop-color="#7866FF"/>
      <stop offset="1" stop-color="#7866FF" stop-opacity="0"/>
    </radialGradient>
    <radialGradient id="paint1_radial" cx="0" cy="0" r="1" gradientUnits="userSpaceOnUse" gradientTransform="translate(304 760) rotate(90) scale(220)">
      <stop stop-color="#4530C9"/>
      <stop offset="1" stop-color="#4530C9" stop-opacity="0"/>
    </radialGradient>
    <linearGradient id="paint2_linear" x1="172" y1="132" x2="1428" y2="768" gradientUnits="userSpaceOnUse">
      <stop stop-color="#171C26" stop-opacity="0.95"/>
      <stop offset="1" stop-color="#11151D" stop-opacity="0.88"/>
    </linearGradient>
    <linearGradient id="paint3_linear" x1="172" y1="132" x2="1428" y2="768" gradientUnits="userSpaceOnUse">
      <stop stop-color="#4F54A7"/>
      <stop offset="1" stop-color="#23303D"/>
    </linearGradient>
  </defs>
</svg>
